<svg width="28" height="28" viewBox="0 0 28 28" fill="none" xmlns="http://www.w3.org/2000/svg">
<path d="M19.5142 2.41149C19.6868 2.71366 19.7323 3.07199 19.6408 3.40769C19.5492 3.7434 19.3281 4.02901 19.026 4.20174C14.8015 6.61674 14.4375 10.5525 14.4375 14.0017V21.7682L18.3225 17.8832C18.4436 17.7579 18.5885 17.658 18.7487 17.5893C18.9088 17.5206 19.0811 17.4845 19.2553 17.483C19.4296 17.4816 19.6024 17.5149 19.7637 17.581C19.925 17.647 20.0715 17.7446 20.1946 17.8679C20.3178 17.9912 20.4152 18.1377 20.4811 18.2991C20.547 18.4604 20.5802 18.6332 20.5786 18.8075C20.577 18.9818 20.5407 19.154 20.4718 19.3141C20.403 19.4742 20.3029 19.619 20.1775 19.74L14.0525 25.865C13.8064 26.1108 13.4728 26.2488 13.125 26.2488C12.7772 26.2488 12.4436 26.1108 12.1975 25.865L6.0725 19.74C5.84066 19.4912 5.71444 19.1621 5.72044 18.8221C5.72644 18.482 5.86419 18.1576 6.10466 17.9172C6.34514 17.6767 6.66956 17.5389 7.00959 17.5329C7.34961 17.5269 7.67869 17.6531 7.9275 17.885L11.8125 21.77V14C11.8125 10.4492 12.1485 5.10999 17.724 1.92324C18.0262 1.75068 18.3845 1.70518 18.7202 1.79674C19.0559 1.8883 19.3415 2.10942 19.5142 2.41149Z" fill="#2C413D"/>
</svg>
