<svg width="42" height="19" viewBox="0 0 42 19" fill="none" xmlns="http://www.w3.org/2000/svg">
<path d="M7.99603 8.376H14.788V17.256C13.892 17.56 12.956 17.8 11.98 17.976C11.02 18.152 9.92403 18.24 8.69203 18.24C6.99603 18.24 5.54803 17.904 4.34803 17.232C3.16403 16.56 2.26003 15.568 1.63603 14.256C1.02803 12.944 0.724031 11.328 0.724031 9.408C0.724031 7.616 1.06803 6.064 1.75603 4.752C2.46003 3.44 3.47603 2.424 4.80403 1.704C6.13203 0.983999 7.75603 0.623999 9.67603 0.623999C10.588 0.623999 11.484 0.719999 12.364 0.912C13.244 1.104 14.044 1.36 14.764 1.68L13.564 4.584C13.036 4.312 12.436 4.088 11.764 3.912C11.092 3.736 10.388 3.648 9.65203 3.648C8.59603 3.648 7.67603 3.888 6.89203 4.368C6.12403 4.848 5.52403 5.528 5.09203 6.408C4.67603 7.272 4.46803 8.296 4.46803 9.48C4.46803 10.6 4.62003 11.592 4.92403 12.456C5.22803 13.32 5.70803 14 6.36403 14.496C7.02003 14.976 7.87603 15.216 8.93203 15.216C9.28403 15.216 9.58803 15.208 9.84403 15.192C10.116 15.16 10.364 15.128 10.588 15.096C10.812 15.048 11.028 15.008 11.236 14.976V11.4H7.99603V8.376ZM34.4112 9.408C34.4112 10.736 34.2432 11.944 33.9072 13.032C33.5872 14.104 33.0912 15.032 32.4192 15.816C31.7632 16.6 30.9152 17.2 29.8752 17.616C28.8512 18.032 27.6432 18.24 26.2512 18.24C24.8592 18.24 23.6432 18.032 22.6032 17.616C21.5792 17.184 20.7312 16.584 20.0592 15.816C19.4032 15.032 18.9072 14.096 18.5712 13.008C18.2512 11.92 18.0912 10.712 18.0912 9.384C18.0912 7.608 18.3792 6.064 18.9552 4.752C19.5472 3.44 20.4432 2.424 21.6432 1.704C22.8592 0.967999 24.4032 0.599999 26.2752 0.599999C28.1312 0.599999 29.6592 0.967999 30.8592 1.704C32.0592 2.424 32.9472 3.448 33.5232 4.776C34.1152 6.088 34.4112 7.632 34.4112 9.408ZM21.9072 9.408C21.9072 10.608 22.0592 11.64 22.3632 12.504C22.6672 13.368 23.1392 14.032 23.7792 14.496C24.4192 14.96 25.2432 15.192 26.2512 15.192C27.2912 15.192 28.1232 14.96 28.7472 14.496C29.3872 14.032 29.8512 13.368 30.1392 12.504C30.4432 11.64 30.5952 10.608 30.5952 9.408C30.5952 7.6 30.2592 6.184 29.5872 5.16C28.9152 4.136 27.8112 3.624 26.2752 3.624C25.2512 3.624 24.4192 3.856 23.7792 4.32C23.1392 4.784 22.6672 5.448 22.3632 6.312C22.0592 7.176 21.9072 8.208 21.9072 9.408ZM40.6728 12.312H37.8168L37.2168 0.863999H41.2728L40.6728 12.312ZM37.1688 16.32C37.1688 15.584 37.3688 15.072 37.7688 14.784C38.1688 14.48 38.6568 14.328 39.2328 14.328C39.7928 14.328 40.2728 14.48 40.6728 14.784C41.0728 15.072 41.2728 15.584 41.2728 16.32C41.2728 17.024 41.0728 17.536 40.6728 17.856C40.2728 18.16 39.7928 18.312 39.2328 18.312C38.6568 18.312 38.1688 18.16 37.7688 17.856C37.3688 17.536 37.1688 17.024 37.1688 16.32Z" fill="#2C413D"/>
</svg>
