<svg width="32" height="32" viewBox="0 0 32 32" fill="none" xmlns="http://www.w3.org/2000/svg">
<path d="M29.7143 15.7516C29.7143 22.5575 23.5737 28.0747 16 28.0747C14.6417 28.0766 13.289 27.8955 11.9766 27.536C10.9754 28.0571 8.67656 29.057 4.80913 29.7084C4.46628 29.7647 4.20571 29.3986 4.34113 29.0711C4.94799 27.5994 5.49656 25.6383 5.66113 23.8496C3.56113 21.6843 2.28571 18.85 2.28571 15.7516C2.28571 8.9457 8.42628 3.42847 16 3.42847C23.5737 3.42847 29.7143 8.9457 29.7143 15.7516ZM10.8571 15.7516C10.8571 15.2847 10.6765 14.8369 10.355 14.5068C10.0335 14.1766 9.59751 13.9911 9.14285 13.9911C8.68819 13.9911 8.25216 14.1766 7.93067 14.5068C7.60917 14.8369 7.42856 15.2847 7.42856 15.7516C7.42856 16.2185 7.60917 16.6663 7.93067 16.9964C8.25216 17.3266 8.68819 17.512 9.14285 17.512C9.59751 17.512 10.0335 17.3266 10.355 16.9964C10.6765 16.6663 10.8571 16.2185 10.8571 15.7516ZM17.7143 15.7516C17.7143 15.2847 17.5337 14.8369 17.2122 14.5068C16.8907 14.1766 16.4546 13.9911 16 13.9911C15.5453 13.9911 15.1093 14.1766 14.7878 14.5068C14.4663 14.8369 14.2857 15.2847 14.2857 15.7516C14.2857 16.2185 14.4663 16.6663 14.7878 16.9964C15.1093 17.3266 15.5453 17.512 16 17.512C16.4546 17.512 16.8907 17.3266 17.2122 16.9964C17.5337 16.6663 17.7143 16.2185 17.7143 15.7516ZM22.8571 17.512C23.3118 17.512 23.7478 17.3266 24.0693 16.9964C24.3908 16.6663 24.5714 16.2185 24.5714 15.7516C24.5714 15.2847 24.3908 14.8369 24.0693 14.5068C23.7478 14.1766 23.3118 13.9911 22.8571 13.9911C22.4025 13.9911 21.9664 14.1766 21.645 14.5068C21.3235 14.8369 21.1428 15.2847 21.1428 15.7516C21.1428 16.2185 21.3235 16.6663 21.645 16.9964C21.9664 17.3266 22.4025 17.512 22.8571 17.512Z" fill="white"/>
</svg>
