<svg width="24" height="24" viewBox="0 0 24 24" fill="none" xmlns="http://www.w3.org/2000/svg">
<path d="M12.9218 2.9999C12.7635 3.00604 12.6125 3.06763 12.495 3.1739L6.79502 7.9139C6.70196 8.00633 6.58917 8.07648 6.46512 8.11908C6.34107 8.16169 6.20898 8.17564 6.07877 8.1599H2.40602C2.28682 8.1591 2.16865 8.18199 2.05837 8.22724C1.94809 8.27249 1.84789 8.33919 1.7636 8.42348C1.67931 8.50777 1.61261 8.60797 1.56736 8.71825C1.52211 8.82853 1.49922 8.9467 1.50002 9.0659V14.9354C1.49942 15.0545 1.52246 15.1725 1.5678 15.2826C1.61313 15.3927 1.67987 15.4927 1.76414 15.5768C1.84841 15.661 1.94854 15.7275 2.05872 15.7727C2.1689 15.8179 2.28695 15.8407 2.40602 15.8399H6.07502C6.20523 15.8242 6.33732 15.8381 6.46137 15.8807C6.58542 15.9233 6.69821 15.9935 6.79127 16.0859L12.4913 20.8259C12.882 21.1506 13.302 20.9939 13.302 20.6091V3.3914C13.3049 3.34018 13.2972 3.2889 13.2793 3.24083C13.2614 3.19275 13.2336 3.14892 13.1979 3.11212C13.1622 3.07531 13.1191 3.04634 13.0716 3.02702C13.0241 3.0077 12.9731 2.99847 12.9218 2.9999ZM20.25 4.7249L18.9068 6.06965C20.0409 7.84379 20.6436 9.90547 20.6436 12.0111C20.6436 14.1168 20.0409 16.1785 18.9068 17.9526L20.2455 19.2846C21.7132 17.1408 22.499 14.6036 22.4998 12.0055C22.5006 9.40736 21.7164 6.86963 20.25 4.7249ZM17.0003 7.96715L15.6788 9.2999C16.2655 10.083 16.5826 11.0352 16.5826 12.0138C16.5826 12.9923 16.2655 13.9445 15.6788 14.7276L16.9958 16.0446C17.9223 14.9031 18.4287 13.4779 18.43 12.0076C18.4314 10.5373 17.9277 9.1112 17.0033 7.9679L17.0003 7.96715Z" fill="#2C413D"/>
</svg>
