<svg width="28" height="28" viewBox="0 0 28 28" fill="none" xmlns="http://www.w3.org/2000/svg">
<path d="M13.988 2.33301C7.54801 2.33301 2.33301 7.55967 2.33301 13.9997C2.33301 20.4397 7.54801 25.6663 13.988 25.6663C20.4397 25.6663 25.6663 20.4397 25.6663 13.9997C25.6663 7.55967 20.4397 2.33301 13.988 2.33301ZM22.073 9.33301H18.6313C18.258 7.87467 17.7213 6.47467 17.0213 5.17967C19.168 5.91467 20.953 7.40801 22.073 9.33301ZM13.9997 4.71301C14.968 6.11301 15.7263 7.66467 16.228 9.33301H11.7713C12.273 7.66467 13.0313 6.11301 13.9997 4.71301ZM4.96967 16.333C4.78301 15.5863 4.66634 14.8047 4.66634 13.9997C4.66634 13.1947 4.78301 12.413 4.96967 11.6663H8.91301C8.81967 12.4363 8.74967 13.2063 8.74967 13.9997C8.74967 14.793 8.81967 15.563 8.91301 16.333H4.96967ZM5.92634 18.6663H9.36801C9.74134 20.1247 10.278 21.5247 10.978 22.8197C8.83134 22.0847 7.04634 20.603 5.92634 18.6663ZM9.36801 9.33301H5.92634C7.04634 7.39634 8.83134 5.91467 10.978 5.17967C10.278 6.47467 9.74134 7.87467 9.36801 9.33301ZM13.9997 23.2863C13.0313 21.8863 12.273 20.3347 11.7713 18.6663H16.228C15.7263 20.3347 14.968 21.8863 13.9997 23.2863ZM16.7297 16.333H11.2697C11.1647 15.563 11.083 14.793 11.083 13.9997C11.083 13.2063 11.1647 12.4247 11.2697 11.6663H16.7297C16.8347 12.4247 16.9163 13.2063 16.9163 13.9997C16.9163 14.793 16.8347 15.563 16.7297 16.333ZM17.0213 22.8197C17.7213 21.5247 18.258 20.1247 18.6313 18.6663H22.073C20.953 20.5913 19.168 22.0847 17.0213 22.8197ZM19.0863 16.333C19.1797 15.563 19.2497 14.793 19.2497 13.9997C19.2497 13.2063 19.1797 12.4363 19.0863 11.6663H23.0297C23.2163 12.413 23.333 13.1947 23.333 13.9997C23.333 14.8047 23.2163 15.5863 23.0297 16.333H19.0863Z" fill="#2C413D"/>
</svg>
