<svg width="52" height="92" viewBox="0 0 52 92" fill="none" xmlns="http://www.w3.org/2000/svg">
<g opacity="0.8">
<rect width="52" height="92" rx="4" fill="white"/>
<path d="M24.8333 49.4999H27.1667V51.8333H24.8333V49.4999ZM24.8333 40.1666H27.1667V47.1666H24.8333V40.1666ZM25.9883 34.3333C19.5483 34.3333 14.3333 39.5599 14.3333 45.9999C14.3333 52.4399 19.5483 57.6666 25.9883 57.6666C32.44 57.6666 37.6667 52.4399 37.6667 45.9999C37.6667 39.5599 32.44 34.3333 25.9883 34.3333ZM26 55.3333C20.8433 55.3333 16.6667 51.1566 16.6667 45.9999C16.6667 40.8433 20.8433 36.6666 26 36.6666C31.1567 36.6666 35.3333 40.8433 35.3333 45.9999C35.3333 51.1566 31.1567 55.3333 26 55.3333Z" fill="#2C413D"/>
<path fill-rule="evenodd" clip-rule="evenodd" d="M48 2H4C2.89543 2 2 2.89543 2 4V11.5H50V4C50 2.89543 49.1046 2 48 2ZM0 11.5V12.5V83.5V84.5V88C0 90.2091 1.79086 92 4 92H48C50.2091 92 52 90.2091 52 88L52 84.5V83.5V12.5V11.5L52 4C52 1.79086 50.2091 0 48 0H4C1.79086 0 0 1.79086 0 4V11.5ZM50 83.5V12.5H2V83.5H50ZM2 84.5V88C2 89.1046 2.89543 90 4 90H48C49.1046 90 50 89.1046 50 88V84.5H2Z" fill="#2C413D"/>
<rect x="22" y="6" width="8" height="2" rx="1" fill="#2C413D"/>
</g>
</svg>
