{"accessors" : [{"bufferView" : 0, "byteOffset" : 0, "componentType" : 5123, "count" : 7539, "type" : "SCALAR", "max" : [6568], "min" : [0]}, {"bufferView" : 1, "byteOffset" : 0, "componentType" : 5126, "count" : 6569, "type" : "VEC3", "max" : [108.50608825683594, 137.26968383789062, 54.091407775878906], "min" : [-105.19645690917969, -131.60037231445312, -68.3584976196289], "name" : "POSITION"}, {"bufferView" : 1, "byteOffset" : 12, "componentType" : 5126, "count" : 6569, "type" : "VEC3", "max" : [0.9994069933891296, 0.9981130361557007, 1.0000044107437134], "min" : [-1.0000044107437134, -0.9999361038208008, -1.0000044107437134], "name" : "NORMAL"}, {"bufferView" : 1, "byteOffset" : 24, "componentType" : 5126, "count" : 6569, "type" : "VEC2", "max" : [0.999500036239624, 0.9994999766349792], "min" : [0.0005000000237487257, 0.023432552814483643], "name" : "TEXCOORD_0"}, {"bufferView" : 1, "byteOffset" : 32, "componentType" : 5126, "count" : 6569, "type" : "VEC2", "max" : [0.999500036239624, 0.9994999766349792], "min" : [0.0005000000237487257, 0.023432552814483643], "name" : "TEXCOORD_1"}], "asset" : {"generator" : "Aspose.3D 22.7", "version" : "2.0"}, "buffers" : [{"uri" : "data:application/octet-stream;base64,", "byteLength" : 316648}], "bufferViews" : [{"buffer" : 0, "byteOffset" : 0, "byteLength" : 15080, "target" : 34963}, {"buffer" : 0, "byteOffset" : 15084, "byteLength" : 301560, "byteStride" : 40, "target" : 34962}], "images" : [{"uri" : "data:image/jpeg;base64,"}], "materials" : [{"name" : "Material #138", "pbrMetallicRoughness" : {"baseColorFactor" : [1, 1, 1, 1], "baseColorTexture" : {"index" : 0, "texCoord" : 0}, "metallicFactor" : 1, "roughnessFactor" : 0.858578622341156}, "emissiveFactor" : [0, 0, 0], "alphaMode" : "OPAQUE", "doubleSided" : true}], "meshes" : [{"primitives" : [{"attributes" : {"POSITION" : 1, "NORMAL" : 2, "TEXCOORD_0" : 3, "TEXCOORD_1" : 4}, "indices" : 0, "material" : 0, "mode" : 4}]}], "nodes" : [{"mesh" : 0, "name" : "Cylinder002"}, {"children" : [0], "matrix" : [1.3829272162979578E-06, 0, 0.9999999657710035, 0, 0, 1, 0, 0, -0.9999999657710035, 0, 1.3829272162979578E-06, 0, 2.172396659851074, -51.567726135253906, -11.846985816955566, 1], "name" : "Bip001"}], "samplers" : [{"magFilter" : 9729, "minFilter" : 9987, "wrapS" : 10497, "wrapT" : 10497}], "scene" : 0, "scenes" : [{"nodes" : [1]}], "textures" : [{"sampler" : 0, "source" : 0, "name" : ""}]}